<svg class="chordChart" xmlns="http://www.w3.org/2000/svg" width="157" height="135" viewBox="0 0 157 135" preserveAspectRatio="xMidYMid meet" font-size="16"><g style="stroke: black;" class="grid"><path d=" M36.5 30 h105 M36.5 55 h105 M36.5 80 h105 M36.5 105 h105 M36.5 130 h105" class="frets"/><path d=" M36.5 30 v100 M57.5 30 v100 M78.5 30 v100 M99.5 30 v100 M120.5 30 v100 M141.5 30 v100" class="strings"/></g><g class="dots"><circle r="9.5" cy="42.5" cx="57.5"/><circle r="9.5" cy="92.5" cx="78.5"/><circle r="9.5" cy="92.5" cx="99.5"/><circle r="9.5" cy="67.5" cx="120.5"/><circle r="9.5" cy="42.5" cx="141.5"/></g><g text-anchor="middle" class="text"><text class="header"><tspan x="36.5" y="23">x</tspan></text><text x="15.5" y="48" class="lofret">3</text><text style="fill: white;" class="labels"><tspan x="57.5" y="48">1</tspan><tspan x="78.5" y="98">3</tspan><tspan x="99.5" y="98">4</tspan><tspan x="120.5" y="73">2</tspan><tspan x="141.5" y="48">1</tspan></text></g><path d="M48 33 A 46.8 9 0 0 1 151 33 A 46.8 11 0 0 0 48 33" class="barre"/></svg>