<svg class="chordChart" xmlns="http://www.w3.org/2000/svg" width="136" height="140" viewBox="0 0 136 140" preserveAspectRatio="xMidYMid meet" font-size="16"><g style="stroke: black;" class="grid"><path d=" M15.5 60 h105 M15.5 85 h105 M15.5 110 h105 M15.5 135 h105" class="frets"/><path d=" M15.5 35 v100 M36.5 35 v100 M57.5 35 v100 M78.5 35 v100 M99.5 35 v100 M120.5 35 v100" class="strings"/></g><g class="dots"><circle r="9.5" cy="47.5" cx="15.5"/><circle r="9.5" cy="97.5" cx="36.5"/><circle r="9.5" cy="47.5" cx="57.5"/><circle r="9.5" cy="72.5" cx="78.5"/><circle r="9.5" cy="47.5" cx="99.5"/><circle r="9.5" cy="47.5" cx="120.5"/></g><g text-anchor="middle" class="text"><text class="header"/><text style="fill: white;" class="labels"><tspan x="15.5" y="53">0</tspan><tspan x="36.5" y="103">2</tspan><tspan x="57.5" y="53">0</tspan><tspan x="78.5" y="78">1</tspan><tspan x="99.5" y="53">0</tspan><tspan x="120.5" y="53">0</tspan></text></g><path d="M15.5 35 h -2.5 a2.5 2.5 0 0 1 0 -5 h110 a2.5 2.5 0 0 1 0 5 z" class="nut"/><path d="M6 38 A 57.3 9 0 0 1 130 38 A 57.3 11 0 0 0 6 38" class="barre"/></svg>