<svg class="chordChart" xmlns="http://www.w3.org/2000/svg" width="136" height="140" viewBox="0 0 136 140" preserveAspectRatio="xMidYMid meet" font-size="16"><g style="stroke: black;" class="grid"><path d=" M15.5 60 h105 M15.5 85 h105 M15.5 110 h105 M15.5 135 h105" class="frets"/><path d=" M15.5 35 v100 M36.5 35 v100 M57.5 35 v100 M78.5 35 v100 M99.5 35 v100 M120.5 35 v100" class="strings"/></g><g class="dots"><circle r="9.5" cy="72.5" cx="36.5"/><circle r="9.5" cy="122.5" cx="57.5"/><circle r="9.5" cy="72.5" cx="78.5"/><circle r="9.5" cy="122.5" cx="99.5"/><circle r="9.5" cy="72.5" cx="120.5"/></g><g text-anchor="middle" class="text"><text class="header"><tspan x="15.5" y="23">x</tspan></text><text style="fill: white;" class="labels"><tspan x="36.5" y="78">1</tspan><tspan x="57.5" y="128">2</tspan><tspan x="78.5" y="78">1</tspan><tspan x="99.5" y="128">4</tspan><tspan x="120.5" y="78">1</tspan></text></g><path d="M15.5 35 h -2.5 a2.5 2.5 0 0 1 0 -5 h110 a2.5 2.5 0 0 1 0 5 z" class="nut"/><path d="M27 63 A 46.8 9 0 0 1 130 63 A 46.8 11 0 0 0 27 63" class="barre"/></svg>