<svg height="512pt" viewBox="-1 0 511 512" width="512pt" xmlns="http://www.w3.org/2000/svg"><g fill-rule="evenodd"><path d="m10.5 172.820312h488.460938v280.847657c0 26.953125-22.054688 49.007812-49.011719 49.007812h-390.4375c-26.957031 0-49.011719-22.054687-49.011719-49.007812zm0 0" fill="#dcf09d"/><path d="m449.949219 42.945312h-390.4375c-26.957031 0-49.011719 22.054688-49.011719 49.007813v83.316406h488.460938v-83.316406c0-26.957031-22.054688-49.007813-49.011719-49.007813zm-319.257813 95.855469c-16.402344 0-29.695312-13.292969-29.695312-29.695312 0-16.398438 13.292968-29.695313 29.695312-29.695313 16.398438 0 29.695313 13.296875 29.695313 29.695313-.003907 16.402343-13.296875 29.695312-29.695313 29.695312zm124.039063 0c-16.402344 0-29.695313-13.292969-29.695313-29.695312 0-16.398438 13.292969-29.695313 29.695313-29.695313 16.398437 0 29.695312 13.296875 29.695312 29.695313 0 16.402343-13.296875 29.695312-29.695312 29.695312zm124.042969 0c-16.402344 0-29.695313-13.292969-29.695313-29.695312 0-16.398438 13.292969-29.695313 29.695313-29.695313 16.398437 0 29.695312 13.296875 29.695312 29.695313-.003906 16.402343-13.296875 29.695312-29.695312 29.695312zm0 0" fill="#5ddef5"/><path d="m55.425781 237.078125h68.265625v68.265625h-68.265625zm0 114.007813h68.265625v68.265624h-68.265625zm330.34375 0h68.265625v68.265624h-68.265625zm-220.230469 0h68.265626v68.265624h-68.265626zm220.230469-114.007813h68.265625v68.265625h-68.265625zm-110.117187 0h68.265625v68.265625h-68.265625zm-110.113282 0h68.265626v68.265625h-68.265626zm0 0" fill="#ffcb78"/><path d="m10.5 382.992188c5.523438 0 10-4.476563 10-10v-187.722657h468.460938v30c0 5.523438 4.476562 10 10 10 5.519531 0 10-4.476562 10-10v-123.316406c0-32.539063-26.472657-59.007813-59.011719-59.007813h-61.058594v-22.945312c0-5.523438-4.480469-10-10-10-5.523437 0-10 4.476562-10 10v22.945312h-104.160156v-22.945312c0-5.523438-4.476563-10-10-10-5.523438 0-10 4.476562-10 10v22.945312h-104.164063v-22.945312c0-5.523438-4.476562-10-10-10-5.519531 0-10 4.476562-10 10v22.945312h-61.054687c-32.539063 0-59.011719 26.46875-59.011719 59.007813v281.039063c0 5.523437 4.476562 10 10 10zm49.011719-330.046876h61.058593v19.175782c-16.292968 4.414062-28.316406 19.316406-28.316406 36.984375 0 21.128906 17.1875 38.316406 38.316406 38.316406 21.128907 0 38.316407-17.1875 38.316407-38.316406 0-17.667969-12.023438-32.574219-28.316407-36.984375v-19.175782h104.160157v19.175782c-16.292969 4.410156-28.316407 19.316406-28.316407 36.984375 0 21.128906 17.191407 38.316406 38.316407 38.316406 21.128906 0 38.316406-17.1875 38.316406-38.316406 0-17.667969-12.023437-32.574219-28.316406-36.984375v-19.175782h104.160156v19.175782c-16.292969 4.410156-28.316406 19.316406-28.316406 36.984375 0 21.128906 17.1875 38.316406 38.316406 38.316406s38.316406-17.1875 38.316406-38.316406c0-17.667969-12.023437-32.574219-28.316406-36.984375v-19.175782h61.058594c21.511719 0 39.011719 17.496094 39.011719 39.007813v73.316406h-468.460938v-73.316406c0-21.511719 17.5-39.007813 39.011719-39.007813zm71.054687 66.160157c5.523438 0 10-4.476563 10-10v-15.324219c5.003906 3.273438 8.320313 8.917969 8.320313 15.328125 0 10.097656-8.21875 18.316406-18.316407 18.316406-10.101562 0-18.316406-8.21875-18.316406-18.316406 0-6.410156 3.3125-12.054687 8.3125-15.328125v15.328125c0 5.519531 4.480469 9.996094 10 9.996094zm124.164063 0c5.523437 0 10-4.476563 10-10v-15.324219c5 3.273438 8.316406 8.917969 8.316406 15.328125 0 10.097656-8.21875 18.316406-18.316406 18.316406-10.101563 0-18.316407-8.21875-18.316407-18.316406 0-6.410156 3.316407-12.054687 8.316407-15.328125v15.328125c0 5.519531 4.476562 9.996094 10 9.996094zm124.160156 0c5.523437 0 10-4.476563 10-10v-15.324219c5 3.273438 8.316406 8.914062 8.316406 15.324219 0 10.101562-8.21875 18.316406-18.316406 18.316406-10.101563 0-18.316406-8.214844-18.316406-18.316406 0-6.410157 3.316406-12.050781 8.316406-15.324219v15.324219c0 5.523437 4.476563 10 10 10zm0 0"/><path d="m498.960938 285.269531c-5.523438 0-10 4.476563-10 10v157.722657c0 21.511718-17.5 39.007812-39.011719 39.007812h-390.4375c-21.511719 0-39.011719-17.496094-39.011719-39.007812 0-5.523438-4.476562-10-10-10s-10 4.476562-10 10c0 32.535156 26.472656 59.007812 59.011719 59.007812h390.4375c32.539062 0 59.011719-26.472656 59.011719-59.007812v-157.722657c0-5.523437-4.480469-10-10-10zm0 0"/><path d="m133.691406 237.078125c0-5.523437-4.480468-10-10-10h-68.265625c-5.523437 0-10 4.476563-10 10v68.265625c0 5.519531 4.476563 10 10 10h68.265625c5.519532 0 10-4.480469 10-10zm-20 58.265625h-48.265625v-48.265625h48.265625zm0 0"/><path d="m123.691406 341.085938h-68.265625c-5.523437 0-10 4.476562-10 10v68.265624c0 5.523438 4.476563 10 10 10h68.265625c5.519532 0 10-4.476562 10-10v-68.265624c0-5.523438-4.480468-10-10-10zm-10 68.265624h-48.265625v-48.265624h48.265625zm0 0"/><path d="m233.804688 341.085938h-68.265626c-5.523437 0-10 4.476562-10 10v68.265624c0 5.523438 4.476563 10 10 10h68.265626c5.523437 0 10-4.476562 10-10v-68.265624c0-5.523438-4.476563-10-10-10zm-10 68.265624h-48.265626v-48.265624h48.265626zm0 0"/><path d="m275.652344 315.34375h68.265625c5.523437 0 10-4.480469 10-10v-68.265625c0-5.523437-4.476563-10-10-10h-68.265625c-5.519532 0-10 4.476563-10 10v68.265625c0 5.519531 4.480468 10 10 10zm10-68.265625h48.265625v48.265625h-48.265625zm0 0"/><path d="m464.03125 237.078125c0-5.523437-4.476562-10-10-10h-68.261719c-5.523437 0-10 4.476563-10 10v68.265625c0 5.519531 4.476563 10 10 10h68.265625c5.523438 0 10-4.480469 10-10v-68.265625zm-20 58.265625h-48.261719v-48.265625h48.265625v48.265625zm0 0"/><path d="m454.03125 341.085938h-68.261719c-5.523437 0-10 4.476562-10 10v68.265624c0 5.523438 4.476563 10 10 10h68.265625c5.523438 0 10-4.476562 10-10v-68.265624c-.003906-5.523438-4.480468-10-10.003906-10zm-10 68.265624h-48.261719v-48.265624h48.265625v48.265624zm0 0"/><path d="m243.804688 237.078125c0-5.523437-4.476563-10-10-10h-68.265626c-5.523437 0-10 4.476563-10 10v68.265625c0 5.519531 4.476563 10 10 10h68.265626c5.523437 0 10-4.480469 10-10zm-20 58.265625h-48.265626v-48.265625h48.265626zm0 0"/><path d="m268.582031 399.753906 26.667969 26.667969c1.953125 1.953125 4.511719 2.929687 7.070312 2.929687 2.558594 0 5.117188-.980468 7.070313-2.929687l41.597656-41.601563c3.90625-3.902343 3.90625-10.234374 0-14.140624-3.902343-3.90625-10.234375-3.90625-14.140625 0l-34.527344 34.527343-19.59375-19.59375c-3.90625-3.90625-10.238281-3.90625-14.144531 0-3.902343 3.90625-3.902343 10.238281 0 14.140625zm0 0"/><path d="m10.5 422.992188c5.507812 0 10-4.492188 10-10 0-5.507813-4.492188-10-10-10s-10 4.492187-10 10c0 5.507812 4.492188 10 10 10zm0 0"/><path d="m498.960938 245.269531c-5.511719 0-10 4.492188-10 10 0 5.507813 4.488281 10 10 10 5.507812 0 10-4.492187 10-10 0-5.507812-4.492188-10-10-10zm0 0"/></g></svg>