<svg height="509pt" viewBox="-4 0 509 509.05" width="509pt" xmlns="http://www.w3.org/2000/svg"><path d="m60.226562 106.148438c0 12.402343-8.5 22.703124-20 25.601562-2 .5-4.101562.800781-6.300781.800781-14.5 0-26.300781-11.800781-26.300781-26.300781 0-14.601562 11.800781-26.300781 26.300781-26.300781 2.199219 0 4.300781.300781 6.300781.800781 11.5 2.699219 20 13.101562 20 25.398438zm0 0" fill="#9778ad"/><path d="m40.226562 131.75c-2 .5-4.101562.800781-6.300781.800781-14.5 0-26.300781-11.800781-26.300781-26.300781 0-14.601562 11.800781-26.300781 26.300781-26.300781 2.199219 0 4.300781.300781 6.300781.800781-7.601562 5.898438-12.5 15.199219-12.5 25.601562 0 10.398438 4.898438 19.398438 12.5 25.398438zm0 0" fill="#82619f"/><path d="m464.925781 310.851562c0 12.398438-8.5 22.699219-20 25.597657-2 .5-4.101562.800781-6.300781.800781-14.5 0-26.300781-11.800781-26.300781-26.300781 0-14.597657 11.800781-26.300781 26.300781-26.300781 2.199219 0 4.300781.300781 6.300781.800781 11.5 2.699219 20 13 20 25.402343zm0 0" fill="#9778ad"/><path d="m444.925781 336.449219c-2 .5-4.101562.800781-6.300781.800781-14.5 0-26.300781-11.800781-26.300781-26.300781 0-14.597657 11.800781-26.300781 26.300781-26.300781 2.199219 0 4.300781.300781 6.300781.800781-7.601562 5.902343-12.5 15.199219-12.5 25.601562 0 10.398438 4.898438 19.398438 12.5 25.398438zm0 0" fill="#82619f"/><path d="m439.226562 469.25c0 17.800781-14.402343 32.300781-32.300781 32.300781h-320.800781c-17.800781 0-32.300781-14.402343-32.300781-32.300781 0-81.199219 65.800781-147.398438 147.402343-147.398438h90.597657c81.601562 0 147.402343 66.199219 147.402343 147.398438zm0 0" fill="#645d66"/><path d="m88.824219 469.25c0 17.800781 14.402343 32.300781 32.300781 32.300781h-35c-17.800781 0-32.300781-14.402343-32.300781-32.300781 0-81.199219 65.800781-147.398438 147.402343-147.398438h35c-81.601562 0-147.402343 66.199219-147.402343 147.398438zm0 0" fill="#544f55"/><path d="m300.625 322.148438v179.402343h-108.101562v-179.402343c2.902343-.199219 5.800781-.296876 8.800781-.296876 98.300781 0 93.199219-.101562 99.300781.296876zm0 0" fill="#a1c38e"/><path d="m300.625 322.148438 66.300781 61.402343c4.398438 6.300781-.101562 14.898438-7.699219 14.898438h-18.203124c-7 0-11.597657 7.402343-8.398438 13.699219l6 11.902343c1.398438 2.800781 1.300781 6.097657-.199219 8.800781l-37.800781 68.699219zm0 0" fill="#434144"/><path d="m192.523438 322.148438-66.296876 61.402343c-4.402343 6.300781.097657 14.898438 7.699219 14.898438h18.199219c7 0 11.601562 7.402343 8.398438 13.699219l-6 11.902343c-1.398438 2.800781-1.296876 6.097657.203124 8.800781l37.699219 68.796876v-179.5zm0 0" fill="#434144"/><path d="m204.523438 321.851562v179.699219h-12.097657v-179.402343c5.097657-.296876 8.300781-.296876 12.097657-.296876zm0 0" fill="#8eb877"/><path d="m300.625 322.148438v179.402343h-12.101562v-179.699219c3.902343 0 7 0 12.101562.296876zm0 0" fill="#8eb877"/><path d="m192.523438 362.25c25.402343 39 82.601562 39.101562 108.101562 0v-144.800781h-108.101562zm0 0" fill="#ce945a"/><path d="m272.324219 446.148438c0 14.25-11.550781 25.800781-25.800781 25.800781-14.246094 0-25.796876-11.550781-25.796876-25.800781 0-14.246094 11.550782-25.796876 25.796876-25.796876 14.25 0 25.800781 11.550782 25.800781 25.796876zm0 0" fill="#ac8ebb"/><path d="m379.925781 225.851562c0 21.039063-17.058593 38.097657-38.101562 38.097657s-38.097657-17.058594-38.097657-38.097657c0-21.042968 17.054688-38.101562 38.097657-38.101562s38.101562 17.058594 38.101562 38.101562zm0 0" fill="#dba26d"/><path d="m189.425781 225.851562c0 21.039063-17.058593 38.097657-38.101562 38.097657s-38.097657-17.058594-38.097657-38.097657c0-21.042968 17.054688-38.101562 38.097657-38.101562s38.101562 17.058594 38.101562 38.101562zm0 0" fill="#ce945a"/><path d="m246.523438 337.851562c-54.597657 0-98.898438-44.300781-98.898438-98.902343v-116c0-18 14.601562-32.699219 32.699219-32.699219h132.5c18 0 32.699219 14.601562 32.699219 32.699219v116c-.097657 54.601562-44.296876 98.902343-99 98.902343zm0 0" fill="#dba26d"/><path d="m264.023438 336.351562c-5.699219 1-11.5 1.597657-17.5 1.597657-54.597657 0-98.898438-44.300781-98.898438-98.898438v-116c0-18 14.601562-32.699219 32.699219-32.699219h35c-18 0-32.699219 14.597657-32.699219 32.699219v116c0 48.597657 35.101562 89 81.398438 97.300781zm0 0" fill="#ce945a"/><path d="m401.425781 177.25c-.300781 5.101562-1.800781 10-4.101562 14.300781-6.300781 11.800781-19 20.097657-33.5 20.699219-.199219 0-.300781 0-.5 0-9.800781.300781-17.898438-7.300781-17.898438-16.601562v-10.296876c0-1-1.101562-1.703124-2.101562-1.300781-4.300781 1.800781-9 2.800781-14 2.800781-16.597657 0-30.5-11-34.300781-25.703124-.296876-1-1.5-1.398438-2.296876-.796876-5.101562 3.597657-11.402343 5.796876-18.203124 5.796876-11.5 0-21.5-6-26.699219-15-.597657-1-2-1-2.597657 0-5.203124 8.902343-15.203124 15-26.703124 15-6.796876 0-13.097657-2.097657-18.199219-5.796876-.800781-.601562-2-.203124-2.300781.796876-3.699219 14.703124-17.597657 25.703124-34.296876 25.703124-17.902343 0-16-10.800781-16.101562 9.597657 0 8.699219-7.300781 15.800781-16.5 15.902343h-.199219c-15.800781 0-28.199219-8.300781-34.601562-19.5-7.300781-12.800781-7-29.402343 4.402343-42.300781-.101562-.101562-.101562-.199219-.203124-.300781-13.5-20.101562-3.898438-47.199219 19.902343-55.398438-7.402343-24.703124 12.800781-49.5 40.800781-47.800781 8-21.199219 33.199219-30.300781 53.597657-21.402343 6.199219-10.796876 18.101562-18.097657 31.699219-18.097657 13.601562 0 25.5 7.300781 31.601562 18.199219 20.300781-8.898438 45.5.199219 53.601562 21.398438 28-1.699219 48.199219 23.101562 40.796876 47.800781 23.800781 8.199219 33.300781 35.300781 19.902343 55.402343-.101562.097657-.101562.199219-.199219.296876 6.296876 7.101562 9.898438 16.5 9.199219 26.601562zm0 0" fill="#544f55"/><path d="m377.023438 167.550781c1.5-10.199219 1.902343-10.699219.902343-11.5-.402343-.300781-.902343-.402343-1.402343-.300781-21.097657 5.398438-42.398438-8.898438-44.5-29.5-.097657-1-1.199219-1.601562-2.199219-1.101562-5.5 2.800781-12.097657 4.101562-18.898438 3.101562-11.402343-1.601562-28.402343-19.601562-32.199219-29.199219-.402343-1-1.902343-1.300781-2.601562-.402343-11.199219 14.101562-32.800781 15.101562-45.800781 2.703124-.800781-.703124-2-.5-2.398438.398438-5.800781 14-21.101562 22.898438-37.601562 20.5-7-1-12.597657-5.800781-13.800781-3.199219-1.296876 2.800781-2.296876 5.699219-3.898438 8.398438-6.699219 10.800781-25.601562 15.699219-36 7.199219-6.300781-5.199219-9-14.296876-8.300781-22.296876.402343-4.703124 1.800781-9.402343 4-13.601562.601562-1.101562 8.601562-11.398438 8.902343-10.898438-.101562-.101562-.101562-.203124-.203124-.402343-6.398438-13.398438-3.898438-28.199219 4.800781-38.699219-19.5 6.101562-31.398438 26.101562-25.398438 45.898438-23.902343 8.300781-33.402343 35.601562-19.699219 55.703124-11.402343 12.796876-11.703124 29.5-4.402343 42.296876 6.402343 11.300781 18.800781 19.5 34.601562 19.5 9.398438 0 16.597657-7.296876 16.597657-15.898438l.101562-11.101562c0-1 1.101562-1.699219 2-1.296876 19.898438 8.199219 43.101562-2.703124 48.199219-22.902343.300781-1 1.5-1.398438 2.300781-.800781 14.699219 10.402343 35.898438 6.300781 44.898438-9.199219.601562-1 2-1 2.601562 0 9 15.5 30.199219 19.601562 44.898438 9.199219.800781-.597657 2-.199219 2.300781.800781 5.101562 20.199219 28.199219 31.199219 48.300781 22.902343 1-.402343 2.101562.296876 2.101562 1.296876v10.300781c0 9.800781 8.796876 17.199219 18.296876 16.601562 16.203124-.699219 30.5-10.902343 35.703124-25.601562-18 1.5-23.402343-10.597657-22.203124-18.898438zm0 0" fill="#434144"/><path d="m401.425781 177.25c-.300781 5.101562-1.800781 10-4.101562 14.300781l-5.199219-2.601562-31.800781-25.398438c-64.898438-52-146-55.5-213.097657-10.699219-4.902343 3.296876-9.800781 6.898438-14.601562 10.699219l-31.800781 25.5-4.398438 3.800781c-7.300781-12.800781-7-29.402343 4.398438-42.300781-.097657-.101562-.097657-.199219-.199219-.300781l.199219-.199219 29.101562-25.402343 2.699219-2.398438c69.601562-60.699219 158-60.699219 227.699219 0l31.800781 27.699219.199219.199219c-.097657.101562-.097657.203124-.199219.300781 6.398438 7.300781 10 16.699219 9.300781 26.800781zm0 0" fill="#9778ad"/><path d="m147.324219 152.851562c-4.898438 3.296876-9.800781 6.898438-14.597657 10.699219l-31.800781 25.5-4.402343 3.800781c-7.296876-12.800781-7-29.402343 4.402343-42.300781-.101562-.101562-.101562-.199219-.199219-.300781l.199219-.199219 29.097657-25.402343c0 .101562 6 15.703124 17.300781 28.203124zm0 0" fill="#82619f"/><path d="m256.726562 469.851562c-3.101562 1.398438-6.601562 2.097657-10.203124 2.097657-14.199219 0-25.796876-11.5-25.796876-25.800781 0-14.296876 11.5-25.796876 25.796876-25.796876 3.601562 0 7 .699219 10.203124 2.097657-9.203124 3.902343-15.601562 13-15.601562 23.699219 0 10.703124 6.398438 19.703124 15.601562 23.703124zm0 0" fill="#9778ad"/><g fill="#070308"><path d="m319.125 316.75c13.300781-12.398438 23.398438-28.101562 29-45.800781 26.898438-3.699219 45.101562-30.5 37.699219-57.300781 23.699219-13.398438 30.199219-42.398438 15.601562-63.699219 11.097657-21.597657 2.300781-48.199219-20.101562-59.597657 1.601562-11.703124-1.597657-23.5-9.199219-33.101562-8.5-10.699219-21.398438-17.101562-35.398438-17.699219-4.902343-9.300781-12.902343-16.699219-23-20.902343-10.300781-4.296876-21.800781-5-32.402343-2-17.398438-22.199219-51.699219-22.199219-69.097657 0-21.300781-6.097657-45.101562 3-55.402343 22.902343-14 .597657-26.898438 7-35.398438 17.699219-7.601562 9.601562-10.800781 21.398438-9.199219 33.101562-22.402343 11.398438-31.203124 38-20.101562 59.597657-8.699219 12.601562-10.300781 28.5-3.898438 42.699219 4.097657 9.203124 10.898438 16.5 19.398438 21.203124-7.300781 26.699219 10.800781 53.5 37.699219 57.199219 5.601562 17.699219 15.699219 33.398438 29 45.800781-40.800781 7.296876-77.398438 30.699219-101.097657 65.699219-2.300781 3.398438-1.402343 8.097657 2 10.398438 3.398438 2.300781 8.097657 1.402343 10.398438-2 20.101562-29.597657 50.300781-50 84.398438-57.898438-51.597657 47.800781-49 45.199219-49.699219 46.199219-7.898438 11.199219.101562 26.699219 13.800781 26.699219 19.5 0 19.101562-.300781 19.800781.902343.800781 1.199219.597657.796876-5.902343 13.796876-2.5 5-2.398438 10.902343.300781 15.703124l31.699219 57.699219h-93.898438c-13.601562 0-24.800781-11.101562-24.800781-24.800781 0-18.5 3.601562-36.5 10.601562-53.398438 1.597657-3.800781-.199219-8.203124-4.101562-9.800781-3.800781-1.601562-8.199219.199219-9.800781 4.097657-7.796876 18.800781-11.699219 38.703124-11.699219 59.101562 0 21.898438 17.800781 39.800781 39.800781 39.800781h320.898438c21.902343 0 39.800781-17.800781 39.800781-39.800781-.097657-76.101562-55.300781-139.601562-127.699219-152.5zm32.699219-62c1.5-9.800781 1.199219-14.5 1.199219-36.898438 6 2.597657 12 2.398438 18.601562 1.097657 3.5 15.300781-5.199219 30.699219-19.800781 35.800781zm-228.800781-152.800781c3.800781-1.300781 5.902343-5.398438 4.703124-9.199219-5.902343-19.898438 10.597657-39.601562 33.199219-38.101562 3.300781.203124 6.300781-1.796876 7.5-4.796876 6.5-17.101562 27-24.402343 43.597657-17.203124 3.5 1.5 7.703124.203124 9.5-3.199219 10.703124-19.097657 39.402343-19.097657 50.101562 0 1.898438 3.402343 6 4.699219 9.5 3.199219 16.5-7.199219 37.101562.101562 43.601562 17.203124 1.199219 3.097657 4.199219 5 7.5 4.796876 23.296876-1.398438 38.898438 18.902343 33.199219 38.101562-1.101562 3.898438.898438 7.898438 4.800781 9.199219 16.199219 5.601562 24 21.699219 19.796876 36.199219-28.796876-25.097657-71.796876-68.796876-143.398438-68.796876-71.199219 0-113.800781 43-143.398438 68.796876-4.101562-10.699219 1.199219-29.796876 19.796876-36.199219zm-1.5 117.101562c6.203124 1.199219 12.800781 1.5 18.601562-.800781v20.800781c0 5.398438.398438 10.597657 1.199219 15.800781-14.800781-5.203124-23.398438-20.703124-19.800781-35.800781zm18.703124-33.601562c-.101562 11.902343 0 11.101562-.101562 12 0 2.800781-3.300781 7.5-9.101562 7.5-10.097657 0-18.796876-4.199219-24.5-10.699219 33.5-26.800781 73.101562-64.898438 140-64.898438 27.101562 0 53.5 6.699219 78.601562 20 3.699219 1.898438 8.199219.5 10.101562-3.101562 1.898438-3.601562.5-8.199219-3.101562-10.101562-27.199219-14.5-56-21.796876-85.601562-21.796876-71.898438 0-114.5 40.296876-146.898438 66.199219-3.199219-15.199219 6.800781-24.5 7.699219-26.101562l30.300781-26.398438c66.800781-58.199219 151-58.300781 217.800781 0 37 32.199219 28.699219 24.898438 31.097657 27.597657 6.5 7.300781 8.703124 16.703124 6.902343 24.902343-31.402343-25.199219-30.902343-24.800781-35-27.902343-3.300781-2.5-8-1.796876-10.5 1.601562-2.5 3.300781-1.800781 8 1.597657 10.5 4.300781 3.199219 4 3 37 29.398438-5.597657 6.203124-13.796876 10.300781-22.597657 10.703124-5.199219.699219-11-3.300781-11-9.101562 0-10.898438.300781-11.898438-1-14.300781-2.101562-4-7-6.097657-11.5-4.199219-15.902343 6.5-34.199219-1.898438-38.199219-17.800781-.703124-2.800781-2.800781-5.199219-5.5-6.199219-2.800781-1-5.902343-.601562-8.402343 1.101562-4 2.898438-8.800781 4.398438-13.898438 4.398438-8.402343 0-16.199219-4.300781-20.199219-11.199219-3.5-5.902343-12.101562-5.902343-15.5 0-4.101562 6.898438-11.800781 11.199219-20.203124 11.199219-5.097657 0-9.898438-1.5-13.898438-4.398438-2.398438-1.703124-5.601562-2.101562-8.398438-1.101562-2.800781 1-4.800781 3.300781-5.5 6.199219-4.101562 16.300781-22.902343 24.199219-38.101562 17.800781-6-2.398438-12.398438 2-12.398438 8.199219zm44.796876 286.800781c-25.398438-46.300781-24.398438-43.601562-23.699219-44.898438l6-11.902343c5.601562-11.300781-2.597657-24.5-15.199219-24.5h-18.199219c-1.5 0-2.300781-1.5-1.800781-2.597657l52.898438-49zm-24.296876-201.800781c-7.101562-19-5.703124-30.800781-5.5-76.800781 19.398438 3.800781 39.199219-5.597657 47.5-23.199219 4.898438 2.199219 10.296876 3.300781 15.898438 3.300781 10.800781 0 20.898438-4.398438 28-11.800781 11.199219 11.699219 29 15.101562 43.898438 8.5 8.203124 17.5 28.101562 27 47.601562 23.199219v45.300781c0 73-82.101562 117-142.898438 75.5-15.703124-10.597657-27.902343-26-34.5-44zm39.296876 89.402343v-25.203124c28.703124 14 63.203124 14.601562 93.101562 0v25.203124c-22.699219 32-70.300781 32.296876-93.101562 0zm64.800781 86.296876c0 10.101562-8.199219 18.300781-18.300781 18.300781-10.097657 0-18.296876-8.199219-18.296876-18.300781 0-10.097657 8.199219-18.296876 18.296876-18.296876 10.101562 0 18.300781 8.296876 18.300781 18.296876zm35.800781-12.796876c-4.101562 0-7.5 3.398438-7.5 7.5v53.199219h-93.101562v-112.101562c11.101562 9.402343 24.601562 15.199219 39 16.699219v15.203124c-14.699219 3.398438-25.796876 16.699219-25.796876 32.398438 0 18.300781 14.898438 33.300781 33.296876 33.300781 18.300781 0 33.300781-14.902343 33.300781-33.300781 0-15.800781-11-29-25.800781-32.398438v-15.300781c14.5-1.5 28.101562-7.402343 39-16.699219v29c0 4.097657 3.402343 7.5 7.5 7.5 4.101562 0 7.5-3.402343 7.5-7.5v-71.601562l52.902343 49c.398438 1-.300781 2.601562-1.800781 2.601562h-18.199219c-12.5 0-20.800781 13.199219-15.101562 24.5 6.199219 12.398438 6.601562 12.398438 5.902343 13.699219l-23.703124 43.097657v-31.398438c.101562-4-3.296876-7.398438-7.398438-7.398438zm106.398438 60.699219h-93.699219l31.601562-57.699219c2.699219-4.902343 2.800781-10.800781.300781-15.703124-6.203124-12.398438-6.203124-12.097657-6.203124-12.796876 0-.800781.601562-1.902343 2-1.902343h18.203124c9.398438 0 17-7.597657 17-17 0-4.898438-2.300781-9.199219-4.101562-10.898438l-48.699219-45.101562c62 14.300781 108.398438 70 108.398438 136.300781-.097657 13.699219-11.199219 24.800781-24.800781 24.800781zm0 0"/><path d="m300.425781 242.851562c0 6.625-5.375 12-12 12-6.628906 0-12-5.375-12-12 0-6.628906 5.371094-12 12-12 6.625 0 12 5.371094 12 12zm0 0"/><path d="m273.824219 218.550781c5.800781-1.199219 24.5-3.300781 33.800781 2.5 3.5 2.199219 8.101562 1.097657 10.300781-2.402343 8-12.597657-21.199219-20.296876-47.199219-14.898438-4.101562.800781-6.703124 4.800781-5.800781 8.898438.898438 4.101562 4.898438 6.703124 8.898438 5.902343zm0 0"/><path d="m216.625 242.851562c0 6.625-5.371094 12-12 12s-12-5.375-12-12c0-6.628906 5.371094-12 12-12s12 5.371094 12 12zm0 0"/><path d="m222.324219 203.851562c-2.898438-.601562-28.800781-5.601562-44.898438 4.5-6.402343 4-3.5 13.898438 4 13.898438 1.398438 0 2.699219-.398438 4-1.199219 9.300781-5.902343 27.597657-3.800781 33.800781-2.5 4.097657.800781 8-1.800781 8.898438-5.800781.800781-4.101562-1.800781-8-5.800781-8.898438zm0 0"/><path d="m266.925781 268.148438c0-4.097657-3.402343-7.5-7.5-7.5-4.101562 0-7.5 3.402343-7.5 7.5 0 7.5-8 12.402343-14.699219 8.902343-3.703124-1.902343-8.203124-.5-10.101562 3.199219s-.5 8.199219 3.199219 10.101562c16.5 8.699219 36.601562-3.402343 36.601562-22.203124zm0 0"/><path d="m67.726562 106.148438v-74.898438c2.097657 2.300781 8.398438 11.101562 21.699219 11.101562 4.097657 0 7.5-3.402343 7.5-7.5 0-4.101562-3.402343-7.5-7.5-7.5-2.601562 0-5.101562-.902343-7.101562-2.5-.5-.5-10.5-11.203124-11-11.601562-7.398438-6.199219-18.597657-1-18.597657 8.601562v56.097657c-22.402343-15-52.7031245 1.101562-52.7031245 28.101562 0 18.699219 15.2031245 33.800781 33.8007815 33.800781 18.601562 0 33.902343-15 33.902343-33.703124zm-33.902343 18.902343c-10.398438 0-18.800781-8.402343-18.800781-18.800781s8.5-18.898438 18.800781-18.898438 18.800781 8.398438 18.800781 18.796876c0 10.402343-8.398438 18.902343-18.800781 18.902343zm0 0"/><path d="m494.125 232.050781c-2.601562 0-5.101562-.902343-7.101562-2.5-.5-.5-10.5-11.199219-11-11.601562-7.398438-6.199219-18.597657-1-18.597657 8.601562v56.097657c-22.402343-15-52.699219 1.101562-52.699219 28.101562 0 18.699219 15.199219 33.800781 33.796876 33.800781 18.601562 0 33.800781-15.199219 33.800781-33.800781v-74.898438c2.101562 2.296876 8.5 11.097657 21.699219 11.097657 4.101562 0 7.5-3.398438 7.5-7.5 0-4.097657-3.296876-7.398438-7.398438-7.398438zm-55.601562 97.597657c-10.398438 0-18.796876-8.398438-18.796876-18.796876 0-10.402343 8.398438-18.800781 18.796876-18.800781 10.402343 0 18.800781 8.398438 18.800781 18.800781 0 10.398438-8.398438 18.796876-18.800781 18.796876zm0 0"/></g></svg>