<svg height="511pt" viewBox="-55 1 511 511.99964" width="511pt" xmlns="http://www.w3.org/2000/svg"><path d="m60.5 362c-27.609375 0-50 22.390625-50 50s22.390625 50 50 50h330v-100zm0 0" fill="#faecd8"/><path d="m10.5 90v322c0-27.609375 22.390625-50 50-50h10v-349.480469c-34.5 8.878907-60 40.210938-60 77.480469zm0 0" fill="#725d57"/><path d="m90.5 10c-6.910156 0-13.609375.878906-20 2.519531v349.480469h320v-352zm0 0" fill="#ff637b"/><path d="m270.5 136v40h-40v126h-40v-126h-40v-40h40v-60h40v60zm0 0" fill="#ffd27b"/><path d="m190.5 502-50-40-50 40c0-33.675781 0-56.945312 0-90h100zm0 0" fill="#ff9100"/><path d="m70.5 166c5.519531 0 10-4.480469 10-10s-4.480469-10-10-10-10 4.480469-10 10 4.480469 10 10 10zm0 0"/><path d="m150.5 186h30v116c0 5.523438 4.476562 10 10 10h40c5.523438 0 10-4.476562 10-10v-116h30c5.523438 0 10-4.476562 10-10v-40c0-5.523438-4.476562-10-10-10h-30v-50c0-5.523438-4.476562-10-10-10h-40c-5.523438 0-10 4.476562-10 10v50h-30c-5.523438 0-10 4.476562-10 10v40c0 5.523438 4.476562 10 10 10zm10-40h30c5.523438 0 10-4.476562 10-10v-50h20v50c0 5.523438 4.476562 10 10 10h30v20h-30c-5.523438 0-10 4.476562-10 10v116h-20v-116c0-5.523438-4.476562-10-10-10h-30zm0 0"/><path d="m60.5 472h20v30c0 3.84375 2.203125 7.347656 5.667969 9.011719 3.464843 1.667969 7.578125 1.199219 10.578125-1.203125l43.753906-35.003906 43.753906 35.003906c1.808594 1.445312 4.019532 2.191406 6.246094 2.191406 1.472656 0 2.953125-.324219 4.332031-.988281 3.464844-1.664063 5.667969-5.167969 5.667969-9.011719v-30h190c5.523438 0 10-4.476562 10-10v-452c0-5.523438-4.476562-10-10-10h-300c-49.316406 0-90 39.855469-90 90v322c0 33.085938 26.914062 60 60 60zm0-20c-22.054688 0-40-17.945312-40-40s17.945312-40 40-40h320v30h-310c-5.523438 0-10 4.476562-10 10s4.476562 10 10 10h10v30zm120 29.195312-33.753906-27.003906c-3.652344-2.921875-8.839844-2.921875-12.492188 0l-33.753906 27.003906v-59.195312h80zm20-29.195312v-30h180v30zm-140-425.265625v89.265625c0 5.523438 4.476562 10 10 10s10-4.476562 10-10v-95.28125c3.304688-.472656 6.648438-.71875 10-.71875h290v332h-300v-156c0-5.523438-4.476562-10-10-10s-10 4.476562-10 10v156c-15.355469 0-29.375 5.804688-40 15.328125v-277.328125c0-27.449219 15.929688-51.875 40-63.265625zm0 0"/></svg>